
        <svg xmlns="http://www.w3.org/2000/svg" xmlns:xlink="http://www.w3.org/1999/xlink" version="1.1" width="3177.2640352216654" 
        height="664.6626329980493" viewBox="0 0 3177.2640352216654 664.6626329980493">
			
			<g transform="scale(8.863201761083278) translate(10, 10)">
				<defs id="SvgjsDefs14544"></defs><g id="SvgjsG14545" featureKey="QMusi1-0" transform="matrix(0.6320834032753824,0,0,0.6320834032753824,4.0810836230546785,-4.487792404375898)" fill="#802101"><circle xmlns="http://www.w3.org/2000/svg" cx="49.7" cy="50.6" r="1.9"></circle><path xmlns="http://www.w3.org/2000/svg" d="M51.5,39c0,1-0.8,1.9-1.9,1.9S47.8,40,47.8,39s0.8-31.9,1.9-31.9S51.5,38,51.5,39z"></path><path xmlns="http://www.w3.org/2000/svg" d="M42.8,41.1c0.7,0.7,0.7,1.9,0,2.6s-1.9,0.7-2.6,0S18.2,20.6,18.9,19.9S42.1,40.3,42.8,41.1z"></path><path xmlns="http://www.w3.org/2000/svg" d="M38.1,48.7c1,0,1.9,0.8,1.9,1.9c0,1-0.8,1.9-1.9,1.9c-1,0-31.9-0.8-31.9-1.9C6.2,49.6,37,48.7,38.1,48.7z"></path><path xmlns="http://www.w3.org/2000/svg" d="M40.2,57.5c0.7-0.7,1.9-0.7,2.6,0s0.7,1.9,0,2.6S19.7,82.1,18.9,81.3S39.4,58.2,40.2,57.5z"></path><path xmlns="http://www.w3.org/2000/svg" d="M47.8,62.2c0-1,0.8-1.9,1.9-1.9s1.9,0.8,1.9,1.9c0,1-0.8,31.9-1.9,31.9S47.8,63.2,47.8,62.2z"></path><path xmlns="http://www.w3.org/2000/svg" d="M56.6,60.1c-0.7-0.7-0.7-1.9,0-2.6s1.9-0.7,2.6,0s21.9,23.1,21.2,23.9S57.3,60.8,56.6,60.1z"></path><path xmlns="http://www.w3.org/2000/svg" d="M61.3,52.5c-1,0-1.9-0.8-1.9-1.9c0-1,0.8-1.9,1.9-1.9s31.9,0.8,31.9,1.9C93.1,51.6,62.3,52.5,61.3,52.5z"></path><path xmlns="http://www.w3.org/2000/svg" d="M59.2,43.7c-0.7,0.7-1.9,0.7-2.6,0s-0.7-1.9,0-2.6s23.1-21.9,23.9-21.2S59.9,43,59.2,43.7z"></path></g><g id="SvgjsG14546" featureKey="sloganFeature-0" transform="matrix(0.6154901374159759,0,0,0.6154901374159759,77.02752474937523,41.76252261678316)" fill="#293e49"><path d="M10.94 5.640000000000001 l1.94 0 l0 9.32 c0 2.94 -1.84 5.42 -5.78 5.42 c-3.86 0 -5.52 -2.48 -5.52 -5.16 l0 -9.58 l1.94 0 l0 9.04 c0 3.12 1.9 3.98 3.64 3.98 c1.78 0 3.78 -0.82 3.78 -3.94 l0 -9.08 z M22.898 14.96 l0 5.04 l-1.94 0 l0 -14.36 l1.94 0 l0 6.96 l6.96 -6.96 l2.68 0 l-5.98 5.8 l6.14 8.56 l-2.52 0 l-5.02 -7.2 z M38.955999999999996 10.74 l0 -5.1 l1.46 0 l0 5.1 l-1.46 0 z M58.593999999999994 9.84 l-1.82 0 c-0.1 -2.22 -1.94 -2.92 -3.56 -2.92 c-1.22 0 -3.28 0.34 -3.28 2.52 c0 1.22 0.86 1.62 1.7 1.82 l4.1 0.94 c1.86 0.44 3.26 1.56 3.26 3.84 c0 3.4 -3.16 4.34 -5.62 4.34 c-2.66 0 -3.7 -0.8 -4.34 -1.38 c-1.22 -1.1 -1.46 -2.3 -1.46 -3.64 l1.82 0 c0 2.6 2.12 3.36 3.96 3.36 c1.4 0 3.76 -0.36 3.76 -2.42 c0 -1.5 -0.7 -1.98 -3.06 -2.54 l-2.94 -0.68 c-0.94 -0.22 -3.06 -0.88 -3.06 -3.38 c0 -2.24 1.46 -4.44 4.94 -4.44 c5.02 0 5.52 3 5.6 4.58 z M77.10999999999999 20 l0 -14.36 l5.82 0 c3.74 0 6.04 2.84 6.04 6.98 c0 3.22 -1.4 7.38 -6.12 7.38 l-5.74 0 z M79.04999999999998 7.300000000000001 l0 11.04 l3.76 0 c2.52 0 4.16 -1.98 4.16 -5.6 s-1.66 -5.44 -4.3 -5.44 l-3.62 0 z M98.68799999999999 5.640000000000001 l0 14.36 l-1.94 0 l0 -14.36 l1.94 0 z M113.26599999999999 13.98 l0 -1.66 l6.3 0 l0 7.68 l-1.26 0 l-0.46 -1.86 c-0.98 1.36 -2.78 2.24 -4.74 2.24 c-2.46 0 -3.66 -0.9 -4.4 -1.62 c-2.2 -2.08 -2.26 -4.54 -2.26 -6.06 c0 -3.5 2.12 -7.44 6.8 -7.44 c2.68 0 5.66 1.52 6.08 4.74 l-1.88 0 c-0.62 -2.5 -2.72 -3.02 -4.3 -3.02 c-2.58 0 -4.7 2.06 -4.7 5.82 c0 2.92 0.96 5.92 4.78 5.92 c0.72 0 1.88 -0.08 2.94 -0.92 c1.26 -1 1.58 -2.28 1.58 -3.82 l-4.48 0 z M129.80399999999997 5.640000000000001 l0 14.36 l-1.94 0 l0 -14.36 l1.94 0 z M136.88199999999998 7.359999999999999 l0 -1.72 l11.66 0 l0 1.72 l-4.86 0 l0 12.64 l-1.94 0 l0 -12.64 l-4.86 0 z M163.35999999999996 15.82 l-5.76 0 l-1.5 4.18 l-2 0 l5.4 -14.36 l2.2 0 l5.2 14.36 l-2.12 0 z M158.19999999999996 14.1 l4.46 0 l-2.12 -6.32 l-0.04 0 z M175.61799999999997 5.640000000000001 l0 12.64 l7.28 0 l0 1.72 l-9.22 0 l0 -14.36 l1.94 0 z M211.15399999999994 18.28 l0 1.72 l-10.6 0 l0 -14.36 l10.46 0 l0 1.72 l-8.52 0 l0 4.4 l7.86 0 l0 1.72 l-7.86 0 l0 4.8 l8.66 0 z M218.79199999999994 20 l0 -14.36 l5.82 0 c3.74 0 6.04 2.84 6.04 6.98 c0 3.22 -1.4 7.38 -6.12 7.38 l-5.74 0 z M220.73199999999994 7.300000000000001 l0 11.04 l3.76 0 c2.52 0 4.16 -1.98 4.16 -5.6 s-1.66 -5.44 -4.3 -5.44 l-3.62 0 z M247.54999999999993 5.640000000000001 l1.94 0 l0 9.32 c0 2.94 -1.84 5.42 -5.78 5.42 c-3.86 0 -5.52 -2.48 -5.52 -5.16 l0 -9.58 l1.94 0 l0 9.04 c0 3.12 1.9 3.98 3.64 3.98 c1.78 0 3.78 -0.82 3.78 -3.94 l0 -9.08 z M269.52799999999996 9.96 l-1.88 0 c-0.54 -2.52 -2.64 -2.98 -4.02 -2.98 c-2.6 0 -4.7 1.92 -4.7 5.7 c0 3.38 1.2 5.98 4.76 5.98 c1.26 0 3.44 -0.6 4.1 -3.94 l1.88 0 c-0.8 5.42 -5.2 5.66 -6.28 5.66 c-3.26 0 -6.46 -2.12 -6.46 -7.64 c0 -4.42 2.52 -7.48 6.7 -7.48 c3.7 0 5.62 2.3 5.9 4.7 z M285.02599999999995 15.82 l-5.76 0 l-1.5 4.18 l-2 0 l5.4 -14.36 l2.2 0 l5.2 14.36 l-2.12 0 z M279.86599999999993 14.1 l4.46 0 l-2.12 -6.32 l-0.04 0 z M294.1039999999999 7.359999999999999 l0 -1.72 l11.66 0 l0 1.72 l-4.86 0 l0 12.64 l-1.94 0 l0 -12.64 l-4.86 0 z M314.80199999999996 5.640000000000001 l0 14.36 l-1.94 0 l0 -14.36 l1.94 0 z M334.37999999999994 12.82 c0 -3.38 -1.88 -5.84 -5 -5.84 s-5 2.46 -5 5.84 s1.88 5.84 5 5.84 s5 -2.46 5 -5.84 z M336.37999999999994 12.82 c0 3.1 -1.64 7.56 -7 7.56 s-7 -4.46 -7 -7.56 s1.64 -7.56 7 -7.56 s7 4.46 7 7.56 z M353.198 17.240000000000002 l0 -11.6 l1.88 0 l0 14.36 l-2.18 0 l-7.3 -11.6 l-0.04 0 l0 11.6 l-1.88 0 l0 -14.36 l2.3 0 l7.18 11.6 l0.04 0 z M383.13399999999996 11.58 l0 -5.94 l1.94 0 l0 14.36 l-1.94 0 l0 -6.7 l-7.5 0 l0 6.7 l-1.94 0 l0 -14.36 l1.94 0 l0 5.94 l7.5 0 z M402.5319999999999 5.640000000000001 l1.94 0 l0 9.32 c0 2.94 -1.84 5.42 -5.78 5.42 c-3.86 0 -5.52 -2.48 -5.52 -5.16 l0 -9.58 l1.94 0 l0 9.04 c0 3.12 1.9 3.98 3.64 3.98 c1.78 0 3.78 -0.82 3.78 -3.94 l0 -9.08 z M414.44999999999993 7.300000000000001 l0 4.42 l3.5 0 c1.86 0 3 -0.56 3 -2.32 c0 -1.34 -0.82 -2.1 -2.98 -2.1 l-3.52 0 z M412.50999999999993 20 l0 -14.36 l6.32 0 c2.68 0 4.06 1.66 4.06 3.62 c0 0.94 -0.34 2.26 -1.92 3 c0.94 0.38 2.6 1.04 2.6 3.5 c0 2.3 -1.7 4.24 -4.88 4.24 l-6.18 0 z M414.44999999999993 13.3 l0 5.04 l4.14 0 c2.02 0 3.04 -1.02 3.04 -2.62 c0 -2.02 -1.78 -2.42 -3.36 -2.42 l-3.82 0 z"></path></g><g id="SvgjsG14547" featureKey="nameLeftFeature-0" transform="matrix(2.350053585461631,0,0,2.350053585461631,71.00490767206307,-12.63031124391461)" fill="#293e49"><path d="M11.3 6 l1.8 0 l0 14.2 l-0.22 0 l-9.4 -9.98 l0 9.78 l-1.78 0 l0 -14.2 l0.2 0 l9.4 9.98 l0 -9.78 z M21.826500000000003 20.2 c-4 0 -7.18 -3.2 -7.18 -7.2 s3.18 -7.2 7.18 -7.2 s7.18 3.2 7.18 7.2 s-3.18 7.2 -7.18 7.2 z M21.826500000000003 18.48 c3.04 0 5.32 -2.38 5.32 -5.48 s-2.28 -5.48 -5.32 -5.48 c-3.06 0 -5.34 2.38 -5.34 5.48 s2.28 5.48 5.34 5.48 z M29.373 6 l1.96 0 l4.24 10.24 l4.26 -10.24 l1.96 0 l-6.1 14.2 l-0.22 0 z M51.9195 20 l-1.22 -2.84 l-6.24 0 l-1.22 2.84 l-1.92 0 l6.16 -14.2 l0.2 0 l6.16 14.2 l-1.92 0 z M45.179500000000004 15.48 l4.8 0 l-2.4 -5.54 z"></path></g><g id="SvgjsG14548" featureKey="nameRightFeature-0" transform="matrix(2.350053585461631,0,0,2.350053585461631,197.0049082323595,-12.63031124391461)" fill="#802101"><path d="M3.5 18.28 l5.92 0 l-0.12 1.72 l-7.6 0 l0 -14 l1.8 0 l0 12.28 z M20 18.28 l0.12 1.72 l-8.52 0 l0 -14 l8.12 0 l0.14 1.72 l-6.46 0 l0 3.42 l4.38 0 l0 1.72 l-4.38 0 l0 5.42 l6.6 0 z M31.92 20 l-1.22 -2.84 l-6.24 0 l-1.22 2.84 l-1.92 0 l6.16 -14.2 l0.2 0 l6.16 14.2 l-1.92 0 z M25.180000000000003 15.48 l4.8 0 l-2.4 -5.54 z M46.02 11.06 c0 2.26 -1.06 4.2 -3.24 4.84 l3.02 4.1 l-2.16 0 l-2.86 -3.88 l-3.14 0 l0 3.88 l-1.8 0 l0 -14 l5.28 0 c3.3 0 4.9 2.28 4.9 5.06 z M37.64 7.68 l0 6.74 l3.4 0 c2.26 0 3.18 -1.66 3.18 -3.36 s-0.92 -3.38 -3.18 -3.38 l-3.4 0 z M58.400000000000006 6 l1.8 0 l0 14.2 l-0.22 0 l-9.4 -9.98 l0 9.78 l-1.78 0 l0 -14.2 l0.2 0 l9.4 9.98 l0 -9.78 z"></path></g>
			</g>
		</svg>
	